<svg width="1125" height="950" viewBox="0 0 1125 950" fill="none" xmlns="http://www.w3.org/2000/svg">
<path opacity="0.2" d="M1450.7 901.085C1435.21 838.096 1365.31 600.601 976.95 388.166C588.593 175.731 417.523 -6.85003 414.065 -201.878" stroke="white"/>
<path opacity="0.2" d="M1364.38 900.687C1352.83 809.562 1268.72 589.772 1024.75 439.619C719.781 251.926 397.392 85.0834 371.973 -219.509" stroke="white"/>
<path opacity="0.2" d="M1542.57 789.728C1482.36 712.065 1297.61 521.092 1040.33 378.5C718.721 200.26 516.585 38.8429 485.837 -132.525" stroke="white"/>
<path opacity="0.2" d="M1511.48 791.212C1451.26 713.55 1266.52 522.576 1009.23 379.985C687.624 201.745 480.071 45.4178 448.393 -168" stroke="white"/>
<path opacity="0.2" d="M1450.48 649.289C1420.46 616.496 1313.04 521.466 1123.49 403.688C886.556 256.465 567.097 87.1912 535.31 -115.046" stroke="white"/>
<path opacity="0.2" d="M1503.33 641.532C1400.63 548.472 1118.58 347.467 908.521 296.931C645.941 233.761 518.011 121.595 456.495 55.2498C407.282 2.17343 342.884 -80.4797 308.706 -244.055" stroke="white"/>
<path opacity="0.2" d="M1543.62 637.454C1417.18 525.303 1095.23 289.322 867.863 269.923C583.659 245.675 242.126 -89.9632 245.526 -277.545" stroke="white"/>
</svg>
