<svg width="300" height="300" viewBox="0 0 300 300" fill="none" xmlns="http://www.w3.org/2000/svg">
<path d="M185.152 129.945L187.386 128.757C188.379 128.229 189 127.196 189 126.07V116.791C189 115.509 188.257 114.345 187.097 113.803L185.164 112.973V118.28C185.164 118.856 184.752 119.383 184.18 119.44C183.421 119.517 182.933 118.923 182.933 118.18V113.892C182.933 112.611 182.039 111.446 180.877 110.904L178.953 110.078V115.236C178.953 115.812 178.542 116.34 177.969 116.397C177.21 116.474 176.722 115.88 176.722 115.136V110.997C176.722 109.715 175.828 108.551 174.666 108.009L172.742 107.183V112.193C172.742 112.769 172.331 113.296 171.758 113.353C170.999 113.431 170.511 112.837 170.511 112.093V108.101C170.511 106.82 169.768 105.655 168.608 105.113L166.057 104V113.262C166.057 113.897 166.189 114.525 166.446 115.106L169.924 122.977C170.122 123.424 170.093 123.939 169.845 124.361L153.819 151.657C153.557 152.103 152.875 151.917 152.875 151.4V128.4C152.875 126.824 151.963 125.392 150.536 124.725L112.361 106.89C112.164 106.798 111.95 106.981 112.01 107.19L114.859 117.105C115.386 118.935 116.678 120.449 118.404 121.255L143.614 133.034C144.184 133.301 144.523 133.936 144.353 134.542C144.19 135.125 143.673 135.475 143.129 135.475C142.95 135.475 142.767 135.437 142.594 135.356L116.616 123.219L119.1 131.863C119.626 133.693 120.919 135.207 122.645 136.014L143.614 145.81C144.184 146.077 144.523 146.712 144.353 147.318C144.19 147.901 143.673 148.251 143.129 148.251C142.95 148.251 142.767 148.213 142.594 148.132L120.858 137.978L123.14 145.919C123.666 147.75 124.958 149.264 126.684 150.07L143.614 157.98C144.184 158.246 144.523 158.882 144.353 159.488C144.19 160.07 143.673 160.42 143.129 160.42C142.95 160.42 142.767 160.382 142.594 160.302L124.897 152.033L127.001 159.356C127.507 161.115 128.721 162.584 130.352 163.412L144.482 170.725C144.738 170.857 144.833 171.178 144.687 171.429L141.719 176.555C141.138 177.558 141.178 178.805 141.822 179.768L148.826 190.255C148.966 190.462 148.935 190.741 148.751 190.912L146.122 193.345C145.953 193.501 146.064 193.785 146.294 193.785H149.27C149.632 193.785 149.991 193.849 150.33 193.975L156.155 196.14C156.403 196.232 156.608 195.93 156.432 195.733L154.684 193.785H161.448C161.789 193.785 162.128 193.843 162.451 193.956L168.562 196.089C168.822 196.18 169.02 195.849 168.816 195.663L167.215 193.785H170.85C171.117 193.785 171.203 193.427 170.965 193.306L165.912 190.738C165.763 190.662 165.661 190.518 165.639 190.353L164.345 180.628C164.225 179.728 164.513 178.823 165.13 178.158L179.496 162.929C182.016 160.257 182.69 156.334 181.203 152.975L178.299 146.409L178.302 146.412C180.083 148.15 183.056 147.543 184.013 145.246L184.06 145.132C184.748 143.477 184.734 141.614 184.02 139.972L182.461 136.387C182.058 135.46 182.655 134.405 183.656 134.273L188.421 133.64C188.641 133.611 188.72 133.334 188.549 133.194L185.109 130.365C184.97 130.25 184.992 130.03 185.152 129.945V129.945ZM160.824 190.912L158.767 193.018C158.617 193.173 158.384 193.215 158.188 193.122L153.125 190.734C152.968 190.66 152.86 190.511 152.838 190.34L151.281 181.52C151.182 180.827 151.326 180.122 151.687 179.523L153.572 176.414C153.998 175.708 154.908 175.396 155.634 175.785C156.409 176.2 156.668 177.172 156.22 177.914L154.802 180.233C154.494 180.743 154.511 181.386 154.848 181.878L160.88 190.272C161.017 190.473 160.993 190.739 160.824 190.912ZM179.984 129.944C178.481 130.174 177.204 128.898 177.434 127.394C177.578 126.457 178.343 125.692 179.28 125.548C180.783 125.318 182.06 126.594 181.83 128.098C181.686 129.034 180.92 129.8 179.984 129.944V129.944Z" fill="white"/>
</svg>
