<svg width="300" height="300" viewBox="0 0 300 300" fill="none" xmlns="http://www.w3.org/2000/svg">
<g clip-path="url(#clip0_76_1230)">
<path d="M198.937 151.125C198.937 147.833 198.646 144.708 198.146 141.667H151.062V160.458H178.021C176.812 166.625 173.271 171.833 168.021 175.375V187.875H184.104C193.521 179.167 198.937 166.333 198.937 151.125Z" fill="#4285F4"/>
<path d="M151.063 200C164.563 200 175.854 195.5 184.104 187.875L168.021 175.375C163.521 178.375 157.813 180.208 151.063 180.208C138.021 180.208 126.979 171.417 123.021 159.542H106.438V172.417C114.646 188.75 131.521 200 151.063 200Z" fill="#34A853"/>
<path d="M123.021 159.542C121.979 156.542 121.437 153.333 121.437 150C121.437 146.667 122.021 143.458 123.021 140.458V127.583H106.437C103.021 134.333 101.062 141.917 101.062 150C101.062 158.083 103.021 165.667 106.437 172.417L123.021 159.542Z" fill="#FBBC05"/>
<path d="M151.063 119.792C158.438 119.792 165.021 122.333 170.229 127.292L184.479 113.042C175.854 104.958 164.563 100 151.063 100C131.521 100 114.646 111.25 106.438 127.583L123.021 140.458C126.979 128.583 138.021 119.792 151.063 119.792Z" fill="#EA4335"/>
</g>
<defs>
<clipPath id="clip0_76_1230">
<rect width="100" height="100" fill="white" transform="translate(100 100)"/>
</clipPath>
</defs>
</svg>
