<svg width="300" height="300" viewBox="0 0 300 300" fill="none" xmlns="http://www.w3.org/2000/svg">
<rect x="105.953" y="105.949" width="88.0952" height="4.7619" fill="#7B74ED"/>
<rect x="189.284" y="105.949" width="4.7619" height="15.7143" fill="#7B74ED"/>
<rect x="105.953" y="105.949" width="4.7619" height="85.7143" fill="#7B74ED"/>
<rect x="105.951" y="189.282" width="45.2381" height="4.7619" fill="#7B74ED"/>
<path d="M135.236 126.748V146.091C135.236 152.83 140.75 158.344 147.49 158.344C154.229 158.344 159.743 152.83 159.743 146.091C159.743 139.351 154.229 133.837 147.49 133.837C144.689 133.837 142.063 134.8 139.963 136.463V126.748H135.236ZM147.402 138.564C151.516 138.564 154.929 141.977 154.929 146.091C154.929 150.204 151.516 153.618 147.402 153.618C143.289 153.618 139.875 150.204 139.875 146.091C139.875 141.89 143.289 138.564 147.402 138.564Z" fill="#7B74ED"/>
<path d="M189.327 136.463C187.226 134.8 184.601 133.837 181.8 133.837C175.06 133.837 169.546 139.351 169.546 146.091C169.546 152.83 175.06 158.344 181.8 158.344C188.539 158.344 194.053 152.83 194.053 146.091V126.748H189.414V136.463H189.327ZM181.8 153.618C177.686 153.618 174.273 150.204 174.273 146.091C174.273 141.977 177.686 138.564 181.8 138.564C185.913 138.564 189.327 141.977 189.327 146.091C189.327 150.204 185.913 153.618 181.8 153.618Z" fill="#7B74ED"/>
<path d="M193.979 170.247H189.34V193.966H193.979V170.247Z" fill="#7B74ED"/>
<path d="M186.539 193.883V181.629C186.539 174.89 181.025 169.376 174.285 169.376C167.546 169.376 162.032 174.89 162.032 181.629C162.032 188.369 167.546 193.883 174.285 193.883C177.086 193.883 179.712 192.92 181.812 191.257V193.97H186.539V193.883ZM174.285 189.156C170.172 189.156 166.758 185.743 166.758 181.629C166.758 177.516 170.172 174.102 174.285 174.102C178.399 174.102 181.812 177.516 181.812 181.629C181.812 185.743 178.486 189.156 174.285 189.156Z" fill="#7B74ED"/>
<path d="M166.921 126.66H162.282V158.431H166.921V126.66Z" fill="#7B74ED"/>
<path d="M158.882 193.882C160.283 193.882 161.333 192.745 161.333 191.432C161.333 190.031 160.195 188.981 158.882 188.981C157.482 188.981 156.432 190.119 156.432 191.432C156.344 192.745 157.482 193.882 158.882 193.882Z" fill="#7B74ED"/>
<path d="M191.703 167.279C193.057 167.279 194.154 166.182 194.154 164.829C194.154 163.475 193.057 162.378 191.703 162.378C190.35 162.378 189.253 163.475 189.253 164.829C189.253 166.182 190.35 167.279 191.703 167.279Z" fill="#7B74ED"/>
</svg>
