<svg width="300" height="300" viewBox="0 0 300 300" fill="none" xmlns="http://www.w3.org/2000/svg">
<rect x="124.987" y="124.987" width="25.0402" height="25.0402" fill="#1663BE" stroke="black" stroke-width="0.7"/>
<rect x="124.987" y="174.96" width="25.0402" height="25.0402" fill="#1663BE" stroke="black" stroke-width="0.7"/>
<rect x="174.96" y="124.987" width="25.0402" height="25.0402" fill="#1663BE" stroke="black" stroke-width="0.7"/>
<rect x="174.96" y="174.96" width="25.0402" height="25.0402" fill="#1663BE" stroke="black" stroke-width="0.7"/>
<rect x="100" y="100" width="25.0402" height="25.0402" fill="#1663BE" stroke="black" stroke-width="0.7"/>
<rect x="100" y="149.973" width="25.0402" height="25.0402" fill="#1663BE" stroke="black" stroke-width="0.7"/>
<rect x="149.973" y="100" width="25.0402" height="25.0402" fill="#1663BE" stroke="black" stroke-width="0.7"/>
<rect x="149.973" y="149.973" width="25.0402" height="25.0402" fill="#1663BE" stroke="black" stroke-width="0.7"/>
<rect x="100" y="124.987" width="25.0402" height="25.0402" fill="#313B47" stroke="black" stroke-width="0.7"/>
<rect x="100" y="174.96" width="25.0402" height="25.0402" fill="#313B47" stroke="black" stroke-width="0.7"/>
<rect x="149.973" y="124.987" width="25.0402" height="25.0402" fill="#313B47" stroke="black" stroke-width="0.7"/>
<rect x="149.973" y="174.96" width="25.0402" height="25.0402" fill="#313B47" stroke="black" stroke-width="0.7"/>
<rect x="124.987" y="100" width="25.0402" height="25.0402" fill="#313B47" stroke="black" stroke-width="0.7"/>
<rect x="124.987" y="149.973" width="25.0402" height="25.0402" fill="#313B47" stroke="black" stroke-width="0.7"/>
<rect x="174.96" y="100" width="25.0402" height="25.0402" fill="#313B47" stroke="black" stroke-width="0.7"/>
<rect x="174.96" y="149.973" width="25.0402" height="25.0402" fill="#313B47" stroke="black" stroke-width="0.7"/>
<path fill-rule="evenodd" clip-rule="evenodd" d="M94 100V200V202C94 204.209 95.7909 206 98 206H100H200H202C204.209 206 206 204.209 206 202V200V100V98C206 95.7909 204.209 94 202 94H200H100H98C95.7909 94 94 95.7909 94 98V100ZM196 200C198.209 200 200 198.209 200 196V104C200 101.791 198.209 100 196 100H104C101.791 100 100 101.791 100 104V196C100 198.209 101.791 200 104 200H196Z" fill="#262626"/>
<path d="M94.35 200V100H93.65V200H94.35ZM94.35 202V200H93.65V202H94.35ZM100 205.65H98V206.35H100V205.65ZM200 205.65H100V206.35H200V205.65ZM202 205.65H200V206.35H202V205.65ZM205.65 200V202H206.35V200H205.65ZM205.65 100V200H206.35V100H205.65ZM205.65 98V100H206.35V98H205.65ZM200 94.35H202V93.65H200V94.35ZM100 94.35H200V93.65H100V94.35ZM98 94.35H100V93.65H98V94.35ZM94.35 100V98H93.65V100H94.35ZM200.35 196V104H199.65V196H200.35ZM196 99.65H104V100.35H196V99.65ZM99.65 104V196H100.35V104H99.65ZM104 200.35H196V199.65H104V200.35ZM99.65 196C99.65 198.402 101.598 200.35 104 200.35V199.65C101.984 199.65 100.35 198.016 100.35 196H99.65ZM104 99.65C101.598 99.65 99.65 101.598 99.65 104H100.35C100.35 101.984 101.984 100.35 104 100.35V99.65ZM98 93.65C95.5976 93.65 93.65 95.5976 93.65 98H94.35C94.35 95.9842 95.9842 94.35 98 94.35V93.65ZM206.35 98C206.35 95.5976 204.402 93.65 202 93.65V94.35C204.016 94.35 205.65 95.9842 205.65 98H206.35ZM202 206.35C204.402 206.35 206.35 204.402 206.35 202H205.65C205.65 204.016 204.016 205.65 202 205.65V206.35ZM199.65 196C199.65 198.016 198.016 199.65 196 199.65V200.35C198.402 200.35 200.35 198.402 200.35 196H199.65ZM200.35 104C200.35 101.598 198.402 99.65 196 99.65V100.35C198.016 100.35 199.65 101.984 199.65 104H200.35ZM93.65 202C93.65 204.402 95.5976 206.35 98 206.35V205.65C95.9842 205.65 94.35 204.016 94.35 202H93.65Z" fill="black"/>
</svg>
