<svg width="300" height="300" viewBox="0 0 300 300" fill="none" xmlns="http://www.w3.org/2000/svg">
<path d="M193.065 150.99C193.065 148.093 192.808 145.343 192.368 142.667H150.935V159.203H174.658C173.595 164.63 170.478 169.213 165.858 172.33V183.33H180.012C188.298 175.667 193.065 164.373 193.065 150.99Z" fill="#4285F4"/>
<path d="M150.935 194C162.815 194 172.752 190.04 180.012 183.33L165.858 172.33C161.898 174.97 156.875 176.583 150.935 176.583C139.458 176.583 129.742 168.847 126.259 158.397H111.665V169.727C118.888 184.1 133.738 194 150.935 194Z" fill="#34A853"/>
<path d="M126.258 158.397C125.342 155.757 124.865 152.933 124.865 150C124.865 147.067 125.378 144.243 126.258 141.603V130.273H111.665C108.658 136.213 106.935 142.887 106.935 150C106.935 157.113 108.658 163.787 111.665 169.727L126.258 158.397Z" fill="#FBBC05"/>
<path d="M150.935 123.417C157.425 123.417 163.218 125.653 167.802 130.017L180.342 117.477C172.752 110.363 162.815 106 150.935 106C133.738 106 118.888 115.9 111.665 130.273L126.259 141.603C129.742 131.153 139.458 123.417 150.935 123.417Z" fill="#EA4335"/>
</svg>
