<svg width="300" height="300" viewBox="0 0 300 300" fill="none" xmlns="http://www.w3.org/2000/svg">
<path d="M96.2731 173.231L133.006 112.437" stroke="#414141" stroke-width="4"/>
<path d="M203.648 162.234L186.359 189.108" stroke="#414141" stroke-width="4"/>
<circle cx="182.427" cy="195.88" r="6.914" transform="rotate(177.09 182.427 195.88)" stroke="#414141" stroke-width="4"/>
<path d="M96.2731 172.926C149.605 110.461 166.994 200.569 204.144 159.862" stroke="#AF5BF0" stroke-width="5"/>
<circle cx="136.564" cy="105.72" r="6.7203" transform="rotate(5.33592 136.564 105.72)" stroke="#414141" stroke-width="4"/>
<rect x="82" y="172.09" width="15.0659" height="15.0659" rx="3" stroke="#AF5BF0" stroke-width="4"/>
<rect x="202.934" y="146.433" width="15.0659" height="15.0659" rx="3" stroke="#AF5BF0" stroke-width="4"/>
<path d="M154.066 115.121L145.457 104.739L144.836 105.254C144.45 105.574 144.632 106.291 144.686 106.644C144.785 107.286 146.961 116.474 148.264 121.993C148.31 122.208 148.527 122.693 149.028 122.914C149.53 123.135 154.447 125.364 156.843 126.451M156.843 126.451L157.11 128.779C157.363 130.088 158.903 131.378 160.403 130.135C161.903 128.891 165.314 129.378 166.204 128.641M156.843 126.451L161.043 122.969" stroke="#D8D8D8" stroke-width="3.33026" stroke-linejoin="round"/>
<path d="M154.069 115.119L145.46 104.737L146.082 104.221C146.468 103.901 147.138 104.213 147.475 104.332C148.088 104.547 156.714 108.387 161.896 110.69C162.099 110.775 162.536 111.078 162.66 111.611C162.784 112.145 164.064 117.39 164.689 119.946M164.689 119.946L166.927 120.639C168.166 121.131 169.149 122.883 167.649 124.127C166.149 125.37 167.093 127.903 166.204 128.641M164.689 119.946L160.489 123.428" stroke="#D8D8D8" stroke-width="3.33026" stroke-linejoin="round"/>
<rect x="150.924" y="116.807" width="7.54021" height="3.23152" rx="1.61576" transform="rotate(-39.7898 150.924 116.807)" fill="#D8D8D8"/>
</svg>
