<svg width="300" height="300" viewBox="0 0 300 300" fill="none" xmlns="http://www.w3.org/2000/svg">
<path d="M82.5273 177.913L129 101" stroke="#414141" stroke-width="4"/>
<path d="M218.373 164L196.5 198" stroke="#414141" stroke-width="4"/>
<circle cx="191.525" cy="206.568" r="8.21695" transform="rotate(177.09 191.525 206.568)" stroke="#414141" stroke-width="4"/>
<path d="M82.5272 177.528C150 98.5 172 212.5 219 161" stroke="#AF5BF0" stroke-width="5"/>
<circle cx="133.501" cy="92.5014" r="7.97189" transform="rotate(5.33592 133.501 92.5014)" stroke="#414141" stroke-width="4"/>
<rect x="65" y="177" width="18" height="18" rx="3" stroke="#AF5BF0" stroke-width="4"/>
<rect x="218" y="144.541" width="18" height="18" rx="3" stroke="#AF5BF0" stroke-width="4"/>
<path d="M155.644 104.396L144.753 91.2606L143.967 91.9125C143.479 92.3171 143.709 93.2241 143.777 93.6706C143.902 94.4826 146.655 106.107 148.304 113.089C148.362 113.361 148.636 113.976 149.271 114.255C149.905 114.534 156.126 117.355 159.157 118.73M159.157 118.73L159.495 121.675C159.815 123.331 161.764 124.964 163.662 123.39C165.559 121.816 169.875 122.433 171 121.5M159.157 118.73L164.471 114.324" stroke="#D8D8D8" stroke-width="3.33026" stroke-linejoin="round"/>
<path d="M155.648 104.393L144.757 91.2576L145.543 90.6057C146.031 90.2011 146.879 90.5955 147.306 90.7453C148.081 91.0178 158.994 95.8763 165.55 98.7897C165.807 98.897 166.36 99.2804 166.517 99.9554C166.674 100.63 168.293 107.266 169.083 110.5M169.083 110.5L171.915 111.377C173.483 111.999 174.726 114.216 172.829 115.789C170.931 117.363 172.125 120.567 171 121.5M169.083 110.5L163.77 114.906" stroke="#D8D8D8" stroke-width="3.33026" stroke-linejoin="round"/>
<rect x="151.668" y="106.529" width="9.53951" height="4.08836" rx="2.04418" transform="rotate(-39.7898 151.668 106.529)" fill="#D8D8D8"/>
</svg>
