<svg width="146" height="194" viewBox="0 0 146 194" fill="none" xmlns="http://www.w3.org/2000/svg">
<g clip-path="url(#clip0_212_1610)">
<path d="M135 22.0645L135 21.037C135 12.1553 125.018 6.93561 117.724 12.0033L90.9112 30.6321C87.9522 32.688 86.1876 36.0627 86.1876 39.6658L86.1876 104M86.1876 164.086L86.1876 171.896C86.1876 180.146 77.4419 185.46 70.1195 181.659L16.6506 153.902C9.19329 150.031 8.65403 139.566 15.6739 134.949L39.476 119.293C42.7302 117.153 46.8737 116.893 50.3698 118.61L119.151 152.389C126.46 155.978 135 150.658 135 142.515L135 134.011" stroke="white" stroke-width="4" stroke-linecap="round"/>
</g>
<defs>
<clipPath id="clip0_212_1610">
<rect width="146" height="194" fill="white"/>
</clipPath>
</defs>
</svg>
