<svg width="77" height="91" viewBox="0 0 77 91" fill="none" xmlns="http://www.w3.org/2000/svg">
<path fill-rule="evenodd" clip-rule="evenodd" d="M55.2559 36.1588V36.04L56.7559 36.5808V47.7451L55.2559 47.0088V36.1588Z" fill="#4A4A4A"/>
<path fill-rule="evenodd" clip-rule="evenodd" d="M41.1893 69.128C41.5751 69.3189 42.027 69.0382 42.027 68.6078V64.3819L43.527 65.1182V68.6078C43.527 70.1504 41.907 71.1565 40.5243 70.4726L21.1582 60.8938C19.7205 60.1827 19.5943 58.1809 20.9312 57.2948L30.488 50.9608C31.1061 50.5511 31.8955 50.5014 32.5601 50.8303L54.418 61.6471C54.8038 61.838 55.2559 61.5573 55.2559 61.1269V54.7949V54.7053L56.7559 55.4416V61.1269C56.7559 62.6697 55.1355 63.6757 53.7527 62.9915L31.8948 52.1747C31.7093 52.0829 31.4891 52.0968 31.3167 52.2111L21.7599 58.5452C21.3869 58.7924 21.4221 59.3508 21.8232 59.5492L41.1893 69.128ZM43.527 48.0964L42.027 47.3601V29.4827C42.027 28.8039 42.3582 28.1677 42.9143 27.7784L53.4823 20.3798C54.8611 19.4144 56.7559 20.4009 56.7559 22.0841V29.0539L55.2559 28.513V22.0841C55.2559 21.6145 54.7272 21.3392 54.3425 21.6086L43.7746 29.0072C43.6194 29.1158 43.527 29.2933 43.527 29.4827V47.9297V48.0964Z" fill="white"/>
</svg>
