<svg width="300" height="300" viewBox="0 0 300 300" fill="none" xmlns="http://www.w3.org/2000/svg">
<rect x="71" y="69" width="160" height="160" fill="#1B1B1B" stroke="black" stroke-width="0.960483"/>
<rect x="81" y="79" width="35" height="35" fill="#185CAB" stroke="black" stroke-width="0.960483"/>
<rect x="81" y="149" width="35" height="35" fill="#185CAB" stroke="black" stroke-width="0.960483"/>
<rect x="81" y="114" width="35" height="35" fill="#323232" stroke="black" stroke-width="0.960483"/>
<rect x="81" y="184" width="35" height="35" fill="#323232" stroke="black" stroke-width="0.960483"/>
<rect x="151" y="79" width="35" height="35" fill="#185CAB" stroke="black" stroke-width="0.960483"/>
<rect x="151" y="149" width="35" height="35" fill="#185CAB" stroke="black" stroke-width="0.960483"/>
<rect x="151" y="114" width="35" height="35" fill="#323232" stroke="black" stroke-width="0.960483"/>
<rect x="151" y="184" width="35" height="35" fill="#323232" stroke="black" stroke-width="0.960483"/>
<rect x="116" y="79" width="35" height="35" fill="#323232" stroke="black" stroke-width="0.960483"/>
<rect x="116" y="149" width="35" height="35" fill="#323232" stroke="black" stroke-width="0.960483"/>
<rect x="116" y="114" width="35" height="35" fill="#185CAB" stroke="black" stroke-width="0.960483"/>
<rect x="116" y="184" width="35" height="35" fill="#185CAB" stroke="black" stroke-width="0.960483"/>
<rect x="186" y="79" width="35" height="35" fill="#323232" stroke="black" stroke-width="0.960483"/>
<rect x="186" y="149" width="35" height="35" fill="#323232" stroke="black" stroke-width="0.960483"/>
<rect x="186" y="114" width="35" height="35" fill="#185CAB" stroke="black" stroke-width="0.960483"/>
<rect x="186" y="184" width="35" height="35" fill="#185CAB" stroke="black" stroke-width="0.960483"/>
<path d="M198.983 207.144V200.641L197 199.884V193H199.887V195.822H202.189V193H203.217H204.811V195.822H207.113V193H210V199.884L208.017 200.641V207.144L210 208.764V212H203.5H197V208.764L198.983 207.144Z" fill="#3E3E3E"/>
<path d="M208.017 207.144V200.641M208.017 207.144L210 208.764V212H203.5H197V208.764L198.983 207.144M208.017 207.144H198.983M198.983 207.144V200.641M198.983 200.641L197 199.884L197 193H199.887V195.822H202.189V193H203.217H204.811V195.822H207.113V193H210V199.884L208.017 200.641M198.983 200.641H208.017" stroke="#0B0B0B"/>
<path d="M93.9835 103.144V96.6413L92 95.8841V89H94.8872V91.8225H97.189V89H98.2166H99.811V91.8225H102.113V89H105V95.8841L103.017 96.6413V103.144L105 104.764V108H98.5H92V104.764L93.9835 103.144Z" fill="#E5F0FF"/>
<path d="M103.017 103.144V96.6413M103.017 103.144L105 104.764V108H98.5H92V104.764L93.9835 103.144M103.017 103.144H93.9835M93.9835 103.144V96.6413M93.9835 96.6413L92 95.8841L92 89H94.8872V91.8225H97.189V89H98.2166H99.811V91.8225H102.113V89H105V95.8841L103.017 96.6413M93.9835 96.6413H103.017" stroke="#0A0A0A"/>
<path d="M163.326 155.124L162.717 154.633L162.527 155.392L162.07 157.222L161.93 157.779L162.502 157.84L165.643 158.174L167.333 158.354L166.01 157.288L163.326 155.124Z" stroke="#0B0B0B"/>
<path d="M168.651 155.296L168.297 155.031L167.991 155.35L167.042 156.338L166.461 156.943L167.27 157.166L170.868 158.159L171.301 157.276L168.651 155.296Z" stroke="#0B0B0B"/>
<mask id="path-24-outside-1_285_1720" maskUnits="userSpaceOnUse" x="160" y="155.318" width="17" height="24" fill="black">
<rect fill="white" x="160" y="155.318" width="17" height="24"/>
<path d="M161.366 167.506V161.448L162.795 156.318H166.394C171.068 156.318 176 159.84 176 164.898H173.053L176 167.268V168.701H173.053L176 170.783V172.175H173.053L176 174.064V175.663L172.898 178.216H161V175.152L168.406 168.135V167.015V163.71L164.427 167.506H161.366Z"/>
</mask>
<path d="M161.366 167.506V161.448L162.795 156.318H166.394C171.068 156.318 176 159.84 176 164.898H173.053L176 167.268V168.701H173.053L176 170.783V172.175H173.053L176 174.064V175.663L172.898 178.216H161V175.152L168.406 168.135V167.015V163.71L164.427 167.506H161.366Z" fill="#3E3E3E"/>
<path d="M161.366 161.448L160.403 161.179L160.366 161.311V161.448H161.366ZM161.366 167.506H160.366V168.506H161.366V167.506ZM164.427 167.506V168.506H164.827L165.117 168.23L164.427 167.506ZM168.406 163.71H169.406V161.374L167.716 162.986L168.406 163.71ZM161 175.152L160.312 174.427L160 174.722V175.152H161ZM161 178.216H160V179.216H161V178.216ZM172.898 178.216V179.216H173.256L173.533 178.988L172.898 178.216ZM176 175.663L176.636 176.435L177 176.135V175.663H176ZM176 174.064H177V173.517L176.54 173.222L176 174.064ZM173.053 172.175V171.175H169.64L172.513 173.017L173.053 172.175ZM176 172.175V173.175H177V172.175H176ZM176 170.783H177V170.265L176.577 169.966L176 170.783ZM173.053 168.701V167.701H169.904L172.476 169.518L173.053 168.701ZM176 168.701V169.701H177V168.701H176ZM176 167.268H177V166.789L176.627 166.489L176 167.268ZM173.053 164.898V163.898H170.214L172.426 165.677L173.053 164.898ZM176 164.898V165.898H177V164.898H176ZM166.394 156.318V157.318H166.394L166.394 156.318ZM162.795 156.318V155.318H162.036L161.832 156.05L162.795 156.318ZM168.406 168.135L169.094 168.861L169.406 168.566V168.135H168.406ZM160.366 161.448V167.506H162.366V161.448H160.366ZM161.366 168.506H164.427V166.506H161.366V168.506ZM165.117 168.23L169.097 164.434L167.716 162.986L163.737 166.783L165.117 168.23ZM167.406 163.71V167.015H169.406V163.71H167.406ZM160 175.152V178.216H162V175.152H160ZM161 179.216H172.898V177.216H161V179.216ZM173.533 178.988L176.636 176.435L175.364 174.891L172.262 177.444L173.533 178.988ZM177 175.663V174.064H175V175.663H177ZM176.54 173.222L173.593 171.333L172.513 173.017L175.46 174.906L176.54 173.222ZM173.053 173.175H176V171.175H173.053V173.175ZM177 172.175V170.783H175V172.175H177ZM176.577 169.966L173.63 167.884L172.476 169.518L175.423 171.6L176.577 169.966ZM173.053 169.701H176V167.701H173.053V169.701ZM177 168.701V167.268H175V168.701H177ZM176.627 166.489L173.68 164.118L172.426 165.677L175.373 168.047L176.627 166.489ZM173.053 165.898H176V163.898H173.053V165.898ZM177 164.898C177 159.124 171.441 155.318 166.394 155.318L166.394 157.318C170.696 157.318 175 160.557 175 164.898H177ZM166.394 155.318H162.795V157.318H166.394V155.318ZM161.832 156.05L160.403 161.179L162.329 161.716L163.759 156.587L161.832 156.05ZM161.688 175.878L169.094 168.861L167.718 167.41L160.312 174.427L161.688 175.878ZM169.406 168.135V167.015H167.406V168.135H169.406Z" fill="#0B0B0B" mask="url(#path-24-outside-1_285_1720)"/>
<path d="M163.012 155.514L162.555 157.343L165.696 157.677L163.012 155.514Z" fill="#3E3E3E"/>
<path d="M168.351 155.696L167.403 156.684L171.001 157.677L168.351 155.696Z" fill="#3E3E3E"/>
<path d="M166.311 159.182L166.393 158.841L166.143 159.088L164.452 160.761L164.423 160.791L164.423 160.832L164.423 162.496L164.423 162.724L164.59 162.57L165.732 161.519L165.755 161.499L165.762 161.469L166.311 159.182Z" fill="#0B0B0B" stroke="#0B0B0B" stroke-width="0.2"/>
<path d="M166.329 131.923L164.737 129L168.5 125L172.263 129L170.671 131.923L171.901 139.269L174 140.462V143H163V140.462L165.099 139.269L166.329 131.923Z" fill="#E6F0FF"/>
<path d="M166.329 131.923L164.737 129L168.5 125L172.263 129L170.671 131.923M166.329 131.923L165.099 139.269M166.329 131.923H170.671M170.671 131.923L171.901 139.269M165.099 139.269L163 140.462V143H174V140.462L171.901 139.269M165.099 139.269H171.901" stroke="#0A0A0A"/>
<path d="M131.329 201.923L129.737 199L133.5 195L137.263 199L135.671 201.923L136.901 209.269L139 210.462V213H128V210.462L130.099 209.269L131.329 201.923Z" fill="#3E3E3E"/>
<path d="M131.329 201.923L129.737 199L133.5 195L137.263 199L135.671 201.923M131.329 201.923L130.099 209.269M131.329 201.923H135.671M135.671 201.923L136.901 209.269M130.099 209.269L128 210.462V213H139V210.462L136.901 209.269M130.099 209.269H136.901" stroke="#0B0B0B"/>
<path d="M130.309 130.042L128.234 124.211L130.388 122.349L133.5 120L138.766 124.211L136.691 130.042L138.686 139.072L141 140.327V143H126V140.327L128.314 139.072L130.309 130.042Z" fill="#E6F0FF"/>
<path d="M130.309 130.042L128.234 124.211L130.388 122.349M130.309 130.042L128.314 139.072M130.309 130.042L133.5 131.646L136.691 130.042M136.691 130.042L138.766 124.211L133.5 120L130.388 122.349M136.691 130.042L138.686 139.072M128.314 139.072L126 140.327V143H141V140.327L138.686 139.072M128.314 139.072H138.686M134.059 126.56L130.388 122.349" stroke="#0A0A0A"/>
<path d="M99.0233 242.9C99.2236 242.9 99.4064 242.917 99.5719 242.952C99.7461 242.978 99.9289 243.017 100.121 243.07V244.284C99.9638 244.093 99.7983 243.945 99.6241 243.84C99.4587 243.727 99.2497 243.67 98.9971 243.67C98.8317 243.67 98.6532 243.705 98.4616 243.775C98.2787 243.836 98.1045 243.953 97.9391 244.128C97.7736 244.293 97.6386 244.537 97.5341 244.859C97.4296 245.173 97.3774 245.578 97.3774 246.074C97.3774 246.483 97.4296 246.836 97.5341 247.132C97.6473 247.428 97.7954 247.659 97.9783 247.824C98.1611 247.981 98.3701 248.059 98.6053 248.059C98.8317 248.059 99.0494 247.99 99.2584 247.85C99.4674 247.702 99.6372 247.467 99.7678 247.145C99.9072 246.814 99.9768 246.379 99.9768 245.839L100.486 247.171C100.347 247.511 100.216 247.776 100.094 247.968C99.9725 248.151 99.8549 248.29 99.7417 248.386C99.6546 248.491 99.524 248.599 99.3498 248.713C99.1844 248.826 98.9884 248.922 98.762 249C98.5356 249.078 98.2874 249.118 98.0175 249.118C97.5211 249.118 97.0769 249.022 96.6851 248.83C96.3019 248.639 96.0015 248.338 95.7838 247.929C95.566 247.52 95.4572 246.993 95.4572 246.348C95.4572 245.686 95.6052 245.094 95.9013 244.572C96.1974 244.049 96.6111 243.64 97.1423 243.344C97.6822 243.048 98.3092 242.9 99.0233 242.9ZM101.832 246.819C101.832 247.089 101.849 247.302 101.884 247.459C101.919 247.607 101.993 247.711 102.106 247.772C102.219 247.833 102.385 247.864 102.602 247.864C102.62 248.003 102.62 248.147 102.602 248.295C102.585 248.434 102.546 248.565 102.485 248.686C102.171 248.695 101.84 248.739 101.492 248.817C101.152 248.887 100.839 248.987 100.552 249.118C100.412 249.057 100.308 248.974 100.238 248.869C100.168 248.765 100.134 248.599 100.134 248.373C100.134 248.199 100.151 248.025 100.186 247.85C100.229 247.676 100.286 247.472 100.356 247.237L101.832 246.819ZM101.832 241.541V247.302H99.9768V241.541H101.832ZM101.453 239.634C101.566 239.678 101.658 239.756 101.727 239.869C101.797 239.974 101.832 240.126 101.832 240.326V241.985H99.9768V241.737C99.9768 241.528 99.9507 241.358 99.8985 241.228C99.8549 241.097 99.7635 241.001 99.6241 240.94C99.4848 240.871 99.2758 240.827 98.9971 240.81C98.9971 240.679 99.0059 240.553 99.0233 240.431C99.0494 240.3 99.0886 240.178 99.1408 240.065C99.4369 240.065 99.7374 240.043 100.042 240C100.347 239.956 100.626 239.904 100.878 239.843C101.139 239.773 101.331 239.704 101.453 239.634Z" fill="white"/>
<path d="M135.774 248.229C135.539 248.517 135.234 248.739 134.859 248.895C134.485 249.044 134.054 249.118 133.566 249.118C132.974 249.118 132.443 249.004 131.972 248.778C131.511 248.552 131.141 248.212 130.862 247.759C130.592 247.306 130.457 246.731 130.457 246.035C130.457 245.512 130.57 245.012 130.797 244.533C131.023 244.054 131.359 243.662 131.803 243.357C132.255 243.052 132.813 242.9 133.475 242.9C133.945 242.9 134.354 242.948 134.703 243.043C135.06 243.131 135.377 243.266 135.656 243.448C135.604 243.692 135.569 243.945 135.552 244.206C135.534 244.459 135.525 244.742 135.525 245.055C135.386 245.116 135.225 245.16 135.042 245.186C134.859 245.212 134.685 245.225 134.52 245.225C134.494 244.72 134.385 244.337 134.193 244.075C134.01 243.814 133.766 243.684 133.462 243.684C133.096 243.684 132.813 243.879 132.613 244.271C132.412 244.663 132.312 245.19 132.312 245.852C132.312 246.226 132.373 246.592 132.495 246.949C132.626 247.298 132.822 247.585 133.083 247.811C133.344 248.029 133.679 248.138 134.089 248.138C134.367 248.138 134.62 248.094 134.846 248.007C135.081 247.911 135.286 247.781 135.46 247.615C135.539 247.685 135.604 247.772 135.656 247.877C135.717 247.981 135.756 248.099 135.774 248.229Z" fill="white"/>
<path d="M166.717 247.733C166.865 247.925 167.026 248.077 167.2 248.19C167.374 248.295 167.588 248.347 167.84 248.347C168.006 248.347 168.18 248.316 168.363 248.255C168.546 248.186 168.72 248.064 168.885 247.89C169.06 247.716 169.199 247.472 169.303 247.158C169.408 246.845 169.46 246.44 169.46 245.943C169.46 245.534 169.404 245.181 169.29 244.885C169.186 244.589 169.042 244.363 168.859 244.206C168.676 244.041 168.467 243.958 168.232 243.958C168.006 243.958 167.788 244.032 167.579 244.18C167.37 244.319 167.196 244.554 167.057 244.885C166.926 245.208 166.861 245.643 166.861 246.192V248.125L166.717 247.733ZM167.827 249.118C167.383 249.118 166.956 249.078 166.547 249C166.138 248.922 165.772 248.813 165.45 248.673C165.136 248.525 164.888 248.364 164.705 248.19C164.81 248.059 164.884 247.885 164.927 247.668C164.98 247.45 165.006 247.141 165.006 246.74V241.737C165.006 241.528 164.98 241.358 164.927 241.228C164.884 241.097 164.792 241.001 164.653 240.94C164.514 240.871 164.305 240.827 164.026 240.81C164.026 240.679 164.035 240.553 164.052 240.431C164.078 240.3 164.118 240.178 164.17 240.065C164.466 240.065 164.766 240.043 165.071 240C165.385 239.956 165.668 239.904 165.92 239.843C166.173 239.773 166.36 239.704 166.482 239.634C166.595 239.678 166.687 239.756 166.756 239.869C166.826 239.974 166.861 240.126 166.861 240.326V243.135C166.861 243.361 166.852 243.544 166.835 243.684C166.817 243.823 166.791 243.971 166.756 244.128L166.639 245.094L166.351 244.846C166.491 244.506 166.621 244.245 166.743 244.062C166.865 243.871 166.978 243.727 167.083 243.631C167.179 243.518 167.309 243.409 167.475 243.305C167.649 243.192 167.849 243.096 168.076 243.017C168.311 242.939 168.559 242.9 168.82 242.9C169.325 242.9 169.769 242.996 170.152 243.187C170.536 243.379 170.836 243.679 171.054 244.088C171.271 244.498 171.38 245.025 171.38 245.669C171.38 246.331 171.232 246.923 170.936 247.446C170.64 247.968 170.226 248.377 169.695 248.673C169.164 248.97 168.541 249.118 167.827 249.118Z" fill="white"/>
<path d="M203.755 249.118C203.607 249.057 203.502 248.97 203.441 248.856C203.38 248.734 203.35 248.569 203.35 248.36C203.35 248.255 203.359 248.134 203.376 247.994C203.393 247.846 203.424 247.707 203.467 247.576L203.507 247.537C203.446 247.763 203.359 247.972 203.245 248.164C203.132 248.347 202.997 248.499 202.84 248.621C202.666 248.778 202.453 248.895 202.2 248.974C201.956 249.052 201.665 249.091 201.325 249.091C200.742 249.091 200.289 248.965 199.967 248.713C199.644 248.46 199.483 248.099 199.483 247.628C199.483 247.298 199.557 247.014 199.705 246.779C199.862 246.536 200.071 246.331 200.332 246.165C200.594 246 200.885 245.865 201.208 245.76C201.53 245.656 201.856 245.573 202.187 245.512C202.527 245.451 202.845 245.399 203.141 245.356C203.141 245.103 203.132 244.894 203.115 244.729C203.106 244.554 203.08 244.411 203.036 244.297C203.002 244.176 202.941 244.071 202.853 243.984C202.758 243.862 202.644 243.779 202.514 243.736C202.392 243.684 202.261 243.657 202.122 243.657C201.878 243.657 201.682 243.731 201.534 243.879C201.395 244.019 201.29 244.202 201.221 244.428C201.151 244.655 201.107 244.885 201.09 245.12C200.881 245.12 200.685 245.112 200.502 245.094C200.319 245.077 200.158 245.042 200.019 244.99C200.036 244.755 200.041 244.502 200.032 244.232C200.023 243.962 199.993 243.692 199.941 243.422C200.306 243.257 200.724 243.126 201.195 243.03C201.673 242.935 202.122 242.887 202.54 242.887C203.036 242.887 203.437 242.948 203.742 243.07C204.047 243.183 204.277 243.318 204.434 243.475C204.617 243.666 204.756 243.927 204.852 244.258C204.957 244.58 205.009 245.046 205.009 245.656V246.792C205.009 247.071 205.026 247.289 205.061 247.446C205.096 247.594 205.166 247.698 205.27 247.759C205.383 247.82 205.553 247.855 205.779 247.864C205.797 248.003 205.797 248.147 205.779 248.295C205.762 248.434 205.723 248.565 205.662 248.686C205.348 248.695 205.022 248.739 204.682 248.817C204.351 248.887 204.042 248.987 203.755 249.118ZM201.978 248.007C202.152 248.007 202.331 247.951 202.514 247.837C202.697 247.716 202.845 247.537 202.958 247.302C203.08 247.067 203.141 246.766 203.141 246.401V246.048C202.888 246.091 202.649 246.144 202.422 246.205C202.205 246.266 202.013 246.344 201.848 246.44C201.691 246.527 201.569 246.64 201.482 246.779C201.395 246.91 201.351 247.075 201.351 247.276C201.351 247.537 201.412 247.724 201.534 247.837C201.665 247.951 201.813 248.007 201.978 248.007Z" fill="white"/>
<path d="M53.553 95.9576C53.553 96.3146 53.5748 96.589 53.6183 96.7805C53.6706 96.9634 53.762 97.0897 53.8926 97.1594C54.0233 97.229 54.2105 97.2682 54.4543 97.2769C54.4892 97.3988 54.5109 97.5295 54.5196 97.6688C54.5284 97.7994 54.5327 97.9344 54.5327 98.0737C54.4021 98.065 54.2453 98.0563 54.0625 98.0476C53.8883 98.0476 53.7054 98.0433 53.5138 98.0345C53.3222 98.0345 53.1437 98.0345 52.9783 98.0345C52.8215 98.0345 52.704 98.0345 52.6256 98.0345C52.5124 98.0345 52.3687 98.0345 52.1945 98.0345C52.0203 98.0345 51.8418 98.0345 51.6589 98.0345C51.4761 98.0433 51.3019 98.0476 51.1364 98.0476C50.971 98.0563 50.8273 98.065 50.7054 98.0737C50.7054 97.9257 50.7097 97.782 50.7184 97.6427C50.7359 97.5033 50.762 97.3814 50.7968 97.2769C51.0319 97.2508 51.2148 97.2029 51.3454 97.1332C51.4761 97.0636 51.5675 96.9373 51.6198 96.7544C51.672 96.5715 51.6981 96.3103 51.6981 95.9707V93.541C51.6981 93.1927 51.672 92.9314 51.6198 92.7573C51.5675 92.5831 51.4761 92.4612 51.3454 92.3915C51.2235 92.3131 51.0407 92.2696 50.7968 92.2609C50.7707 92.1477 50.7489 92.0258 50.7315 91.8951C50.7141 91.7558 50.7054 91.6121 50.7054 91.4641C50.8099 91.4728 50.9449 91.4815 51.1103 91.4902C51.2845 91.4902 51.4674 91.4946 51.6589 91.5033C51.8505 91.5033 52.0334 91.5033 52.2076 91.5033C52.3817 91.5033 52.5211 91.5033 52.6256 91.5033C52.8085 91.5033 53.0218 91.5033 53.2656 91.5033C53.5095 91.4946 53.7446 91.4902 53.971 91.4902C54.2061 91.4815 54.3934 91.4728 54.5327 91.4641C54.5327 91.6208 54.524 91.7645 54.5066 91.8951C54.4979 92.0258 54.4805 92.1477 54.4543 92.2609C54.2192 92.2696 54.032 92.3131 53.8926 92.3915C53.762 92.4612 53.6706 92.5831 53.6183 92.7573C53.5748 92.9314 53.553 93.1927 53.553 93.541V95.9576Z" fill="white"/>
<path d="M53.5138 126.9C54.0102 126.9 54.4326 126.961 54.7809 127.082C55.1292 127.196 55.3948 127.374 55.5777 127.618C55.7606 127.853 55.852 128.158 55.852 128.532C55.852 128.811 55.7954 129.064 55.6822 129.29C55.5777 129.508 55.3992 129.734 55.1467 129.969C54.9028 130.196 54.5719 130.466 54.1539 130.779C53.8839 130.979 53.6227 131.184 53.3701 131.393C53.1176 131.593 52.8433 131.824 52.5472 132.085L52.2468 131.85H54.1278C54.4151 131.85 54.6285 131.837 54.7678 131.811C54.9159 131.776 55.016 131.711 55.0683 131.615C55.1205 131.511 55.1597 131.35 55.1858 131.132C55.3426 131.132 55.5037 131.141 55.6692 131.158C55.8346 131.167 55.9696 131.193 56.0741 131.236C56.0741 131.602 56.0828 131.946 56.1002 132.268C56.1263 132.582 56.1655 132.861 56.2178 133.104C56.1655 133.235 56.0872 133.339 55.9827 133.418C55.8782 133.496 55.7475 133.535 55.5908 133.535C55.2512 133.527 54.8549 133.518 54.4021 133.509C53.958 133.509 53.5269 133.509 53.1089 133.509C52.6909 133.509 52.2729 133.509 51.8549 133.509C51.4456 133.518 51.1147 133.527 50.8621 133.535C50.7663 133.405 50.701 133.265 50.6662 133.117C50.6314 132.961 50.6139 132.791 50.6139 132.608C50.91 132.312 51.2235 132.02 51.5544 131.733C51.8854 131.445 52.2381 131.141 52.6125 130.818C52.9783 130.505 53.2569 130.239 53.4485 130.022C53.6401 129.795 53.7707 129.586 53.8404 129.395C53.9101 129.194 53.9449 128.99 53.9449 128.781C53.9449 128.45 53.8622 128.193 53.6967 128.01C53.54 127.818 53.3005 127.723 52.9783 127.723C52.6822 127.723 52.4514 127.84 52.2859 128.075C52.1292 128.302 52.0116 128.746 51.9333 129.408C51.7243 129.408 51.537 129.399 51.3716 129.382C51.2148 129.355 51.0668 129.316 50.9274 129.264C50.9449 129.107 50.9536 128.924 50.9536 128.715C50.9623 128.506 50.9623 128.297 50.9536 128.088C50.9449 127.871 50.9231 127.683 50.8883 127.527C51.2105 127.335 51.5806 127.183 51.9986 127.069C52.4166 126.956 52.9217 126.9 53.5138 126.9Z" fill="white"/>
<path d="M52.5733 171.314C52.1031 171.314 51.6894 171.257 51.3324 171.144C50.984 171.039 50.701 170.891 50.4833 170.7C50.492 170.587 50.5225 170.469 50.5748 170.347C50.6357 170.225 50.7141 170.116 50.8099 170.021C50.9666 170.134 51.1626 170.23 51.3977 170.308C51.6415 170.395 51.942 170.439 52.299 170.439C52.6473 170.439 52.9652 170.369 53.2526 170.23C53.54 170.099 53.7707 169.903 53.9449 169.642C54.1191 169.389 54.2061 169.08 54.2061 168.714C54.2061 168.296 54.0886 167.957 53.8535 167.695C53.627 167.434 53.27 167.304 52.7823 167.304C52.7127 167.304 52.643 167.312 52.5733 167.33C52.5037 167.338 52.434 167.351 52.3643 167.369C52.2772 167.273 52.2076 167.16 52.1553 167.029C52.1118 166.89 52.09 166.764 52.09 166.65C52.5167 166.119 52.8868 165.653 53.2003 165.253C53.5225 164.843 53.8012 164.473 54.0363 164.142H52.7823C52.5298 164.142 52.3295 164.164 52.1814 164.208C52.0334 164.251 51.9115 164.343 51.8157 164.482C51.7286 164.613 51.6328 164.817 51.5283 165.096C51.389 165.096 51.2409 165.083 51.0842 165.057C50.9274 165.022 50.7968 164.965 50.6923 164.887C50.762 164.478 50.8012 164.09 50.8099 163.724C50.8273 163.35 50.836 162.945 50.836 162.51C51.0189 162.51 51.2409 162.514 51.5022 162.523C51.7634 162.531 52.0508 162.54 52.3643 162.549C52.6778 162.549 53.0044 162.549 53.344 162.549C53.6749 162.549 53.9841 162.549 54.2715 162.549C54.5675 162.54 54.8332 162.531 55.0683 162.523C55.3121 162.514 55.5124 162.51 55.6692 162.51C55.7562 162.614 55.8172 162.736 55.852 162.875C55.8956 163.015 55.913 163.163 55.9043 163.319C55.5908 163.703 55.2424 164.142 54.8593 164.639C54.4848 165.126 54.1104 165.618 53.7359 166.115C54.2149 166.115 54.6329 166.206 54.9899 166.389C55.3557 166.563 55.6387 166.825 55.839 167.173C56.048 167.513 56.1525 167.944 56.1525 168.466C56.1525 169.015 56.0088 169.502 55.7214 169.929C55.4427 170.365 55.0378 170.704 54.5066 170.948C53.9754 171.192 53.331 171.314 52.5733 171.314Z" fill="white"/>
<path d="M53.9057 204.651C53.3484 204.651 52.8172 204.655 52.3121 204.664C51.807 204.681 51.2758 204.707 50.7184 204.742C50.6314 204.577 50.553 204.394 50.4833 204.194C50.4136 203.993 50.3788 203.789 50.3788 203.58L54.7809 198.041C54.9986 198.033 55.212 198.037 55.421 198.054C55.6387 198.072 55.839 198.102 56.0218 198.146V206.558C55.8303 206.558 55.63 206.571 55.421 206.597C55.212 206.632 55.0204 206.671 54.8462 206.715C54.672 206.767 54.5196 206.824 54.389 206.885C54.3019 206.815 54.2366 206.728 54.1931 206.623C54.1583 206.528 54.1408 206.401 54.1408 206.245V204.403V204.115V199.543L54.4935 199.583L51.7634 203.41L51.7373 203.07L55.4732 203.057H55.7606H56.9101C57.0581 203.057 57.1757 203.079 57.2628 203.123C57.3586 203.157 57.437 203.227 57.4979 203.332C57.437 203.48 57.3847 203.623 57.3412 203.763C57.3063 203.902 57.2759 204.046 57.2497 204.194C57.2323 204.333 57.2236 204.485 57.2236 204.651H53.9057Z" fill="white"/>
</svg>
