<svg width="300" height="300" viewBox="0 0 300 300" fill="none" xmlns="http://www.w3.org/2000/svg">
<rect x="71" y="69" width="160" height="160" fill="#1B1B1B" stroke="black" stroke-width="0.960483"/>
<rect x="81" y="79" width="35" height="35" fill="#185CAB" stroke="black" stroke-width="0.960483"/>
<rect x="81" y="149" width="35" height="35" fill="#185CAB" stroke="black" stroke-width="0.960483"/>
<rect x="81" y="114" width="35" height="35" fill="#323232" stroke="black" stroke-width="0.960483"/>
<rect x="81" y="184" width="35" height="35" fill="#323232" stroke="black" stroke-width="0.960483"/>
<rect x="151" y="79" width="35" height="35" fill="#185CAB" stroke="black" stroke-width="0.960483"/>
<rect x="151" y="149" width="35" height="35" fill="#185CAB" stroke="black" stroke-width="0.960483"/>
<rect x="151" y="114" width="35" height="35" fill="#323232" stroke="black" stroke-width="0.960483"/>
<rect x="151" y="184" width="35" height="35" fill="#323232" stroke="black" stroke-width="0.960483"/>
<rect x="116" y="79" width="35" height="35" fill="#323232" stroke="black" stroke-width="0.960483"/>
<rect x="116" y="149" width="35" height="35" fill="#323232" stroke="black" stroke-width="0.960483"/>
<rect x="116" y="114" width="35" height="35" fill="#185CAB" stroke="black" stroke-width="0.960483"/>
<rect x="116" y="184" width="35" height="35" fill="#185CAB" stroke="black" stroke-width="0.960483"/>
<rect x="186" y="79" width="35" height="35" fill="#323232" stroke="black" stroke-width="0.960483"/>
<rect x="186" y="149" width="35" height="35" fill="#323232" stroke="black" stroke-width="0.960483"/>
<rect x="186" y="114" width="35" height="35" fill="#185CAB" stroke="black" stroke-width="0.960483"/>
<rect x="186" y="184" width="35" height="35" fill="#185CAB" stroke="black" stroke-width="0.960483"/>
<path d="M198.983 207.144V200.641L197 199.884V193H199.887V195.822H202.189V193H203.217H204.811V195.822H207.113V193H210V199.884L208.017 200.641V207.144L210 208.764V212H203.5H197V208.764L198.983 207.144Z" fill="#3E3E3E"/>
<path d="M208.017 207.144V200.641M208.017 207.144L210 208.764V212H203.5H197V208.764L198.983 207.144M208.017 207.144H198.983M198.983 207.144V200.641M198.983 200.641L197 199.884L197 193H199.887V195.822H202.189V193H203.217H204.811V195.822H207.113V193H210V199.884L208.017 200.641M198.983 200.641H208.017" stroke="#0B0B0B"/>
<path d="M93.9835 103.144V96.6413L92 95.8841V89H94.8872V91.8225H97.189V89H98.2166H99.811V91.8225H102.113V89H105V95.8841L103.017 96.6413V103.144L105 104.764V108H98.5H92V104.764L93.9835 103.144Z" fill="#E5F0FF"/>
<path d="M103.017 103.144V96.6413M103.017 103.144L105 104.764V108H98.5H92V104.764L93.9835 103.144M103.017 103.144H93.9835M93.9835 103.144V96.6413M93.9835 96.6413L92 95.8841L92 89H94.8872V91.8225H97.189V89H98.2166H99.811V91.8225H102.113V89H105V95.8841L103.017 96.6413M93.9835 96.6413H103.017" stroke="#0A0A0A"/>
<path d="M162.07 157.222L161.93 157.779L162.502 157.84L165.643 158.174L167.333 158.354L166.01 157.288L163.326 155.124L162.717 154.633L162.527 155.392L162.07 157.222Z" stroke="#0B0B0B"/>
<path d="M167.042 156.338L166.461 156.943L167.27 157.166L170.868 158.159L171.301 157.276L168.651 155.296L168.297 155.031L167.991 155.35L167.042 156.338Z" stroke="#0B0B0B"/>
<mask id="path-24-outside-1_285_1720" maskUnits="userSpaceOnUse" x="160" y="155.318" width="17" height="24" fill="black">
<rect fill="white" x="160" y="155.318" width="17" height="24"/>
<path d="M161.366 167.506V161.448L162.795 156.318H166.394C171.068 156.318 176 159.84 176 164.898H173.053L176 167.268V168.701H173.053L176 170.783V172.175H173.053L176 174.064V175.663L172.898 178.216H161V175.152L168.406 168.135V167.015V163.71L164.427 167.506H161.366Z"/>
</mask>
<path d="M161.366 167.506V161.448L162.795 156.318H166.394C171.068 156.318 176 159.84 176 164.898H173.053L176 167.268V168.701H173.053L176 170.783V172.175H173.053L176 174.064V175.663L172.898 178.216H161V175.152L168.406 168.135V167.015V163.71L164.427 167.506H161.366Z" fill="#3E3E3E"/>
<path d="M161.366 161.448L160.403 161.179L160.366 161.311V161.448H161.366ZM161.366 167.506H160.366V168.506H161.366V167.506ZM164.427 167.506V168.506H164.827L165.117 168.23L164.427 167.506ZM168.406 163.71H169.406V161.374L167.716 162.986L168.406 163.71ZM161 175.152L160.312 174.427L160 174.722V175.152H161ZM161 178.216H160V179.216H161V178.216ZM172.898 178.216V179.216H173.256L173.533 178.988L172.898 178.216ZM176 175.663L176.636 176.435L177 176.135V175.663H176ZM176 174.064H177V173.517L176.54 173.222L176 174.064ZM173.053 172.175V171.175H169.64L172.513 173.017L173.053 172.175ZM176 172.175V173.175H177V172.175H176ZM176 170.783H177V170.265L176.577 169.966L176 170.783ZM173.053 168.701V167.701H169.904L172.476 169.518L173.053 168.701ZM176 168.701V169.701H177V168.701H176ZM176 167.268H177V166.789L176.627 166.489L176 167.268ZM173.053 164.898V163.898H170.214L172.426 165.677L173.053 164.898ZM176 164.898V165.898H177V164.898H176ZM166.394 156.318V157.318H166.394L166.394 156.318ZM162.795 156.318V155.318H162.036L161.832 156.05L162.795 156.318ZM168.406 168.135L169.094 168.861L169.406 168.566V168.135H168.406ZM160.366 161.448V167.506H162.366V161.448H160.366ZM161.366 168.506H164.427V166.506H161.366V168.506ZM165.117 168.23L169.097 164.434L167.716 162.986L163.737 166.783L165.117 168.23ZM167.406 163.71V167.015H169.406V163.71H167.406ZM160 175.152V178.216H162V175.152H160ZM161 179.216H172.898V177.216H161V179.216ZM173.533 178.988L176.636 176.435L175.364 174.891L172.262 177.444L173.533 178.988ZM177 175.663V174.064H175V175.663H177ZM176.54 173.222L173.593 171.333L172.513 173.017L175.46 174.906L176.54 173.222ZM173.053 173.175H176V171.175H173.053V173.175ZM177 172.175V170.783H175V172.175H177ZM176.577 169.966L173.63 167.884L172.476 169.518L175.423 171.6L176.577 169.966ZM173.053 169.701H176V167.701H173.053V169.701ZM177 168.701V167.268H175V168.701H177ZM176.627 166.489L173.68 164.118L172.426 165.677L175.373 168.047L176.627 166.489ZM173.053 165.898H176V163.898H173.053V165.898ZM177 164.898C177 159.124 171.441 155.318 166.394 155.318L166.394 157.318C170.696 157.318 175 160.557 175 164.898H177ZM166.394 155.318H162.795V157.318H166.394V155.318ZM161.832 156.05L160.403 161.179L162.329 161.716L163.759 156.587L161.832 156.05ZM161.688 175.878L169.094 168.861L167.718 167.41L160.312 174.427L161.688 175.878ZM169.406 168.135V167.015H167.406V168.135H169.406Z" fill="#0B0B0B" mask="url(#path-24-outside-1_285_1720)"/>
<path d="M163.012 155.514L162.555 157.343L165.696 157.677L163.012 155.514Z" fill="#3E3E3E"/>
<path d="M168.351 155.696L167.403 156.684L171.001 157.677L168.351 155.696Z" fill="#3E3E3E"/>
<path d="M166.311 159.182L166.393 158.841L166.143 159.088L164.452 160.761L164.423 160.791L164.423 160.832L164.423 162.496L164.423 162.724L164.59 162.57L165.732 161.519L165.755 161.499L165.762 161.469L166.311 159.182Z" fill="#0B0B0B" stroke="#0B0B0B" stroke-width="0.2"/>
<path d="M166.329 131.923L164.737 129L168.5 125L172.263 129L170.671 131.923L171.901 139.269L174 140.462V143H163V140.462L165.099 139.269L166.329 131.923Z" fill="#E6F0FF"/>
<path d="M166.329 131.923L164.737 129L168.5 125L172.263 129L170.671 131.923M166.329 131.923L165.099 139.269M166.329 131.923H170.671M170.671 131.923L171.901 139.269M165.099 139.269L163 140.462V143H174V140.462L171.901 139.269M165.099 139.269H171.901" stroke="#0A0A0A"/>
<path d="M131.329 201.923L129.737 199L133.5 195L137.263 199L135.671 201.923L136.901 209.269L139 210.462V213H128V210.462L130.099 209.269L131.329 201.923Z" fill="#3E3E3E"/>
<path d="M131.329 201.923L129.737 199L133.5 195L137.263 199L135.671 201.923M131.329 201.923L130.099 209.269M131.329 201.923H135.671M135.671 201.923L136.901 209.269M130.099 209.269L128 210.462V213H139V210.462L136.901 209.269M130.099 209.269H136.901" stroke="#0B0B0B"/>
<path d="M130.309 130.042L128.234 124.211L130.388 122.349L133.5 120L138.766 124.211L136.691 130.042L138.686 139.072L141 140.327V143H126V140.327L128.314 139.072L130.309 130.042Z" fill="#E6F0FF"/>
<path d="M130.309 130.042L128.234 124.211L130.388 122.349M130.309 130.042L128.314 139.072M130.309 130.042L133.5 131.646L136.691 130.042M136.691 130.042L138.766 124.211L133.5 120L130.388 122.349M136.691 130.042L138.686 139.072M128.314 139.072L126 140.327V143H141V140.327L138.686 139.072M128.314 139.072H138.686M134.059 126.56L130.388 122.349" stroke="#0A0A0A"/>
<path d="M99.7548 249.118C99.6067 249.057 99.5022 248.97 99.4413 248.856C99.3803 248.734 99.3498 248.569 99.3498 248.36C99.3498 248.255 99.3585 248.134 99.376 247.994C99.3934 247.846 99.4239 247.707 99.4674 247.576L99.5066 247.537C99.4456 247.763 99.3585 247.972 99.2453 248.164C99.1321 248.347 98.9971 248.499 98.8404 248.621C98.6662 248.778 98.4529 248.895 98.2003 248.974C97.9565 249.052 97.6648 249.091 97.3251 249.091C96.7417 249.091 96.2888 248.965 95.9666 248.713C95.6444 248.46 95.4833 248.099 95.4833 247.628C95.4833 247.298 95.5573 247.014 95.7054 246.779C95.8621 246.536 96.0711 246.331 96.3324 246.165C96.5936 246 96.8854 245.865 97.2076 245.76C97.5298 245.656 97.8563 245.573 98.1873 245.512C98.5269 245.451 98.8447 245.399 99.1408 245.356C99.1408 245.103 99.1321 244.894 99.1147 244.729C99.106 244.554 99.0799 244.411 99.0363 244.297C99.0015 244.176 98.9405 244.071 98.8535 243.984C98.7577 243.862 98.6445 243.779 98.5138 243.736C98.3919 243.684 98.2613 243.657 98.122 243.657C97.8781 243.657 97.6822 243.731 97.5341 243.879C97.3948 244.019 97.2903 244.202 97.2206 244.428C97.151 244.655 97.1074 244.885 97.09 245.12C96.881 245.12 96.6851 245.112 96.5022 245.094C96.3193 245.077 96.1582 245.042 96.0189 244.99C96.0363 244.755 96.0407 244.502 96.0319 244.232C96.0232 243.962 95.9928 243.692 95.9405 243.422C96.3063 243.257 96.7243 243.126 97.1945 243.03C97.6735 242.935 98.122 242.887 98.54 242.887C99.0363 242.887 99.4369 242.948 99.7417 243.07C100.047 243.183 100.277 243.318 100.434 243.475C100.617 243.666 100.756 243.927 100.852 244.258C100.957 244.58 101.009 245.046 101.009 245.656V246.792C101.009 247.071 101.026 247.289 101.061 247.446C101.096 247.594 101.166 247.698 101.27 247.759C101.383 247.82 101.553 247.855 101.779 247.864C101.797 248.003 101.797 248.147 101.779 248.295C101.762 248.434 101.723 248.565 101.662 248.686C101.348 248.695 101.022 248.739 100.682 248.817C100.351 248.887 100.042 248.987 99.7548 249.118ZM97.9783 248.007C98.1524 248.007 98.331 247.951 98.5138 247.837C98.6967 247.716 98.8447 247.537 98.958 247.302C99.0799 247.067 99.1408 246.766 99.1408 246.401V246.048C98.8883 246.091 98.6488 246.144 98.4224 246.205C98.2047 246.266 98.0131 246.344 97.8476 246.44C97.6909 246.527 97.569 246.64 97.4819 246.779C97.3948 246.91 97.3513 247.075 97.3513 247.276C97.3513 247.537 97.4122 247.724 97.5341 247.837C97.6648 247.951 97.8128 248.007 97.9783 248.007Z" fill="white"/>
<path d="M132.717 247.733C132.865 247.925 133.026 248.077 133.2 248.19C133.374 248.295 133.588 248.347 133.84 248.347C134.006 248.347 134.18 248.316 134.363 248.255C134.546 248.186 134.72 248.064 134.885 247.89C135.06 247.716 135.199 247.472 135.303 247.158C135.408 246.845 135.46 246.44 135.46 245.943C135.46 245.534 135.404 245.181 135.29 244.885C135.186 244.589 135.042 244.363 134.859 244.206C134.676 244.041 134.467 243.958 134.232 243.958C134.006 243.958 133.788 244.032 133.579 244.18C133.37 244.319 133.196 244.554 133.057 244.885C132.926 245.208 132.861 245.643 132.861 246.192V248.125L132.717 247.733ZM133.827 249.118C133.383 249.118 132.956 249.078 132.547 249C132.138 248.922 131.772 248.813 131.45 248.673C131.136 248.525 130.888 248.364 130.705 248.19C130.81 248.059 130.884 247.885 130.927 247.668C130.98 247.45 131.006 247.141 131.006 246.74V241.737C131.006 241.528 130.98 241.358 130.927 241.228C130.884 241.097 130.792 241.001 130.653 240.94C130.514 240.871 130.305 240.827 130.026 240.81C130.026 240.679 130.035 240.553 130.052 240.431C130.078 240.3 130.118 240.178 130.17 240.065C130.466 240.065 130.766 240.043 131.071 240C131.385 239.956 131.668 239.904 131.92 239.843C132.173 239.773 132.36 239.704 132.482 239.634C132.595 239.678 132.687 239.756 132.756 239.869C132.826 239.974 132.861 240.126 132.861 240.326V243.135C132.861 243.361 132.852 243.544 132.835 243.684C132.817 243.823 132.791 243.971 132.756 244.128L132.639 245.094L132.351 244.846C132.491 244.506 132.621 244.245 132.743 244.062C132.865 243.871 132.978 243.727 133.083 243.631C133.179 243.518 133.309 243.409 133.475 243.305C133.649 243.192 133.849 243.096 134.076 243.017C134.311 242.939 134.559 242.9 134.82 242.9C135.325 242.9 135.769 242.996 136.152 243.187C136.536 243.379 136.836 243.679 137.054 244.088C137.271 244.498 137.38 245.025 137.38 245.669C137.38 246.331 137.232 246.923 136.936 247.446C136.64 247.968 136.226 248.377 135.695 248.673C135.164 248.97 134.541 249.118 133.827 249.118Z" fill="white"/>
<path d="M170.774 248.229C170.539 248.517 170.234 248.739 169.859 248.895C169.485 249.044 169.054 249.118 168.566 249.118C167.974 249.118 167.443 249.004 166.972 248.778C166.511 248.552 166.141 248.212 165.862 247.759C165.592 247.306 165.457 246.731 165.457 246.035C165.457 245.512 165.57 245.012 165.797 244.533C166.023 244.054 166.359 243.662 166.803 243.357C167.255 243.052 167.813 242.9 168.475 242.9C168.945 242.9 169.354 242.948 169.703 243.043C170.06 243.131 170.377 243.266 170.656 243.448C170.604 243.692 170.569 243.945 170.552 244.206C170.534 244.459 170.525 244.742 170.525 245.055C170.386 245.116 170.225 245.16 170.042 245.186C169.859 245.212 169.685 245.225 169.52 245.225C169.494 244.72 169.385 244.337 169.193 244.075C169.01 243.814 168.766 243.684 168.462 243.684C168.096 243.684 167.813 243.879 167.613 244.271C167.412 244.663 167.312 245.19 167.312 245.852C167.312 246.226 167.373 246.592 167.495 246.949C167.626 247.298 167.822 247.585 168.083 247.811C168.344 248.029 168.679 248.138 169.089 248.138C169.367 248.138 169.62 248.094 169.846 248.007C170.081 247.911 170.286 247.781 170.46 247.615C170.539 247.685 170.604 247.772 170.656 247.877C170.717 247.981 170.756 248.099 170.774 248.229Z" fill="white"/>
<path d="M203.023 242.9C203.224 242.9 203.406 242.917 203.572 242.952C203.746 242.978 203.929 243.017 204.121 243.07V244.284C203.964 244.093 203.798 243.945 203.624 243.84C203.459 243.727 203.25 243.67 202.997 243.67C202.832 243.67 202.653 243.705 202.462 243.775C202.279 243.836 202.105 243.953 201.939 244.128C201.774 244.293 201.639 244.537 201.534 244.859C201.43 245.173 201.377 245.578 201.377 246.074C201.377 246.483 201.43 246.836 201.534 247.132C201.647 247.428 201.795 247.659 201.978 247.824C202.161 247.981 202.37 248.059 202.605 248.059C202.832 248.059 203.049 247.99 203.258 247.85C203.467 247.702 203.637 247.467 203.768 247.145C203.907 246.814 203.977 246.379 203.977 245.839L204.486 247.171C204.347 247.511 204.216 247.776 204.094 247.968C203.972 248.151 203.855 248.29 203.742 248.386C203.655 248.491 203.524 248.599 203.35 248.713C203.184 248.826 202.988 248.922 202.762 249C202.536 249.078 202.287 249.118 202.017 249.118C201.521 249.118 201.077 249.022 200.685 248.83C200.302 248.639 200.001 248.338 199.784 247.929C199.566 247.52 199.457 246.993 199.457 246.348C199.457 245.686 199.605 245.094 199.901 244.572C200.197 244.049 200.611 243.64 201.142 243.344C201.682 243.048 202.309 242.9 203.023 242.9ZM205.832 246.819C205.832 247.089 205.849 247.302 205.884 247.459C205.919 247.607 205.993 247.711 206.106 247.772C206.219 247.833 206.385 247.864 206.602 247.864C206.62 248.003 206.62 248.147 206.602 248.295C206.585 248.434 206.546 248.565 206.485 248.686C206.171 248.695 205.84 248.739 205.492 248.817C205.152 248.887 204.839 248.987 204.552 249.118C204.412 249.057 204.308 248.974 204.238 248.869C204.168 248.765 204.134 248.599 204.134 248.373C204.134 248.199 204.151 248.025 204.186 247.85C204.229 247.676 204.286 247.472 204.356 247.237L205.832 246.819ZM205.832 241.541V247.302H203.977V241.541H205.832ZM205.453 239.634C205.566 239.678 205.658 239.756 205.727 239.869C205.797 239.974 205.832 240.126 205.832 240.326V241.985H203.977V241.737C203.977 241.528 203.951 241.358 203.898 241.228C203.855 241.097 203.763 241.001 203.624 240.94C203.485 240.871 203.276 240.827 202.997 240.81C202.997 240.679 203.006 240.553 203.023 240.431C203.049 240.3 203.089 240.178 203.141 240.065C203.437 240.065 203.737 240.043 204.042 240C204.347 239.956 204.626 239.904 204.878 239.843C205.139 239.773 205.331 239.704 205.453 239.634Z" fill="white"/>
<path d="M53.9057 98.0345C53.3484 98.0345 52.8172 98.0389 52.3121 98.0476C51.807 98.065 51.2758 98.0912 50.7184 98.126C50.6314 97.9605 50.553 97.7776 50.4833 97.5774C50.4136 97.3771 50.3788 97.1724 50.3788 96.9634L54.7809 91.4249C54.9986 91.4162 55.212 91.4205 55.421 91.4379C55.6387 91.4554 55.839 91.4858 56.0218 91.5294V99.9417C55.8303 99.9417 55.63 99.9547 55.421 99.9809C55.212 100.016 55.0204 100.055 54.8462 100.098C54.672 100.151 54.5196 100.207 54.389 100.268C54.3019 100.199 54.2366 100.111 54.1931 100.007C54.1583 99.9112 54.1408 99.7849 54.1408 99.6282V97.7864V97.499V92.9271L54.4935 92.9663L51.7634 96.7936L51.7373 96.454L55.4732 96.4409H55.7606H56.9101C57.0581 96.4409 57.1757 96.4627 57.2628 96.5062C57.3586 96.5411 57.437 96.6107 57.4979 96.7152C57.437 96.8633 57.3847 97.007 57.3412 97.1463C57.3063 97.2856 57.2759 97.4293 57.2497 97.5774C57.2323 97.7167 57.2236 97.8691 57.2236 98.0345H53.9057Z" fill="white"/>
<path d="M52.5733 136.094C52.1031 136.094 51.6894 136.038 51.3324 135.924C50.984 135.82 50.701 135.672 50.4833 135.48C50.492 135.367 50.5225 135.25 50.5748 135.128C50.6357 135.006 50.7141 134.897 50.8099 134.801C50.9666 134.914 51.1626 135.01 51.3977 135.088C51.6415 135.176 51.942 135.219 52.299 135.219C52.6473 135.219 52.9652 135.149 53.2526 135.01C53.54 134.879 53.7707 134.684 53.9449 134.422C54.1191 134.17 54.2061 133.861 54.2061 133.495C54.2061 133.077 54.0886 132.737 53.8535 132.476C53.627 132.215 53.27 132.084 52.7823 132.084C52.7127 132.084 52.643 132.093 52.5733 132.11C52.5037 132.119 52.434 132.132 52.3643 132.149C52.2772 132.054 52.2076 131.94 52.1553 131.81C52.1118 131.67 52.09 131.544 52.09 131.431C52.5167 130.9 52.8868 130.434 53.2003 130.033C53.5225 129.624 53.8012 129.254 54.0363 128.923H52.7823C52.5298 128.923 52.3295 128.945 52.1814 128.988C52.0334 129.032 51.9115 129.123 51.8157 129.263C51.7286 129.393 51.6328 129.598 51.5283 129.877C51.389 129.877 51.2409 129.863 51.0842 129.837C50.9274 129.802 50.7968 129.746 50.6923 129.668C50.762 129.258 50.8012 128.871 50.8099 128.505C50.8273 128.13 50.836 127.726 50.836 127.29C51.0189 127.29 51.2409 127.294 51.5022 127.303C51.7634 127.312 52.0508 127.321 52.3643 127.329C52.6778 127.329 53.0044 127.329 53.344 127.329C53.6749 127.329 53.9841 127.329 54.2715 127.329C54.5675 127.321 54.8332 127.312 55.0683 127.303C55.3121 127.294 55.5124 127.29 55.6692 127.29C55.7562 127.395 55.8172 127.517 55.852 127.656C55.8956 127.795 55.913 127.943 55.9043 128.1C55.5908 128.483 55.2424 128.923 54.8593 129.419C54.4848 129.907 54.1104 130.399 53.7359 130.895C54.2149 130.895 54.6329 130.987 54.9899 131.17C55.3557 131.344 55.6387 131.605 55.839 131.953C56.048 132.293 56.1525 132.724 56.1525 133.247C56.1525 133.795 56.0088 134.283 55.7214 134.71C55.4427 135.145 55.0378 135.485 54.5066 135.729C53.9754 135.972 53.331 136.094 52.5733 136.094Z" fill="white"/>
<path d="M53.5138 163.077C54.0102 163.077 54.4326 163.138 54.7809 163.26C55.1292 163.373 55.3948 163.552 55.5777 163.795C55.7606 164.031 55.852 164.335 55.852 164.71C55.852 164.988 55.7954 165.241 55.6822 165.467C55.5777 165.685 55.3992 165.912 55.1467 166.147C54.9028 166.373 54.5719 166.643 54.1539 166.957C53.8839 167.157 53.6227 167.362 53.3701 167.571C53.1176 167.771 52.8433 168.002 52.5472 168.263L52.2468 168.028H54.1278C54.4151 168.028 54.6285 168.015 54.7678 167.989C54.9159 167.954 55.016 167.888 55.0683 167.793C55.1205 167.688 55.1597 167.527 55.1858 167.309C55.3426 167.309 55.5037 167.318 55.6692 167.335C55.8346 167.344 55.9696 167.37 56.0741 167.414C56.0741 167.78 56.0828 168.123 56.1002 168.446C56.1263 168.759 56.1655 169.038 56.2178 169.282C56.1655 169.412 56.0872 169.517 55.9827 169.595C55.8782 169.674 55.7475 169.713 55.5908 169.713C55.2512 169.704 54.8549 169.695 54.4021 169.687C53.958 169.687 53.5269 169.687 53.1089 169.687C52.6909 169.687 52.2729 169.687 51.8549 169.687C51.4456 169.695 51.1147 169.704 50.8621 169.713C50.7663 169.582 50.701 169.443 50.6662 169.295C50.6314 169.138 50.6139 168.968 50.6139 168.785C50.91 168.489 51.2235 168.198 51.5544 167.91C51.8854 167.623 52.2381 167.318 52.6125 166.996C52.9783 166.682 53.2569 166.417 53.4485 166.199C53.6401 165.973 53.7707 165.764 53.8404 165.572C53.9101 165.372 53.9449 165.167 53.9449 164.958C53.9449 164.627 53.8622 164.37 53.6967 164.187C53.54 163.996 53.3005 163.9 52.9783 163.9C52.6822 163.9 52.4514 164.017 52.2859 164.253C52.1292 164.479 52.0116 164.923 51.9333 165.585C51.7243 165.585 51.537 165.576 51.3716 165.559C51.2148 165.533 51.0668 165.494 50.9274 165.441C50.9449 165.285 50.9536 165.102 50.9536 164.893C50.9623 164.684 50.9623 164.475 50.9536 164.266C50.9449 164.048 50.9231 163.861 50.8883 163.704C51.2105 163.512 51.5806 163.36 51.9986 163.247C52.4166 163.134 52.9217 163.077 53.5138 163.077Z" fill="white"/>
<path d="M53.553 203.532C53.553 203.889 53.5748 204.163 53.6183 204.355C53.6706 204.538 53.762 204.664 53.8926 204.733C54.0233 204.803 54.2105 204.842 54.4543 204.851C54.4892 204.973 54.5109 205.104 54.5196 205.243C54.5284 205.374 54.5327 205.508 54.5327 205.648C54.4021 205.639 54.2453 205.63 54.0625 205.622C53.8883 205.622 53.7054 205.617 53.5138 205.609C53.3222 205.609 53.1437 205.609 52.9783 205.609C52.8215 205.609 52.704 205.609 52.6256 205.609C52.5124 205.609 52.3687 205.609 52.1945 205.609C52.0203 205.609 51.8418 205.609 51.6589 205.609C51.4761 205.617 51.3019 205.622 51.1364 205.622C50.971 205.63 50.8273 205.639 50.7054 205.648C50.7054 205.5 50.7097 205.356 50.7184 205.217C50.7359 205.077 50.762 204.956 50.7968 204.851C51.0319 204.825 51.2148 204.777 51.3454 204.707C51.4761 204.638 51.5675 204.511 51.6198 204.329C51.672 204.146 51.6981 203.884 51.6981 203.545V201.115C51.6981 200.767 51.672 200.506 51.6198 200.331C51.5675 200.157 51.4761 200.035 51.3454 199.966C51.2235 199.887 51.0407 199.844 50.7968 199.835C50.7707 199.722 50.7489 199.6 50.7315 199.469C50.7141 199.33 50.7054 199.186 50.7054 199.038C50.8099 199.047 50.9449 199.056 51.1103 199.064C51.2845 199.064 51.4674 199.069 51.6589 199.077C51.8505 199.077 52.0334 199.077 52.2076 199.077C52.3817 199.077 52.5211 199.077 52.6256 199.077C52.8085 199.077 53.0218 199.077 53.2656 199.077C53.5095 199.069 53.7446 199.064 53.971 199.064C54.2061 199.056 54.3934 199.047 54.5327 199.038C54.5327 199.195 54.524 199.339 54.5066 199.469C54.4979 199.6 54.4805 199.722 54.4543 199.835C54.2192 199.844 54.032 199.887 53.8926 199.966C53.762 200.035 53.6706 200.157 53.6183 200.331C53.5748 200.506 53.553 200.767 53.553 201.115V203.532Z" fill="white"/>
</svg>
