<svg width="100" height="100" viewBox="0 0 100 100" fill="none" xmlns="http://www.w3.org/2000/svg">
<circle opacity="0.2" cx="50" cy="50" r="49.5" stroke="white"/>
<path d="M35.1679 58.8321C35.5584 58.4416 35.5584 57.8084 35.1679 57.4179L27.9571 50.2071C27.5666 49.8166 27.5666 49.1834 27.9571 48.7929L35.1679 41.5821C35.5584 41.1916 35.5584 40.5584 35.1679 40.1679L33.9571 38.9571C33.5666 38.5666 32.9334 38.5666 32.5429 38.9571L22.7071 48.7929C22.3166 49.1834 22.3166 49.8166 22.7071 50.2071L32.5429 60.0429C32.9334 60.4334 33.5666 60.4334 33.9571 60.0429L35.1679 58.8321Z" fill="white"/>
<path d="M64 58.125C64 58.125 64 58.125 64 58.125L71.9179 50.2071C72.3084 49.8166 72.3084 49.1834 71.9179 48.7929L64.7071 41.5821C64.3166 41.1916 64.3166 40.5584 64.7071 40.1679L65.9179 38.9571C66.3084 38.5666 66.9416 38.5666 67.3321 38.9571L77.1679 48.7929C77.5584 49.1834 77.5584 49.8166 77.1679 50.2071L67.3321 60.0429C66.9416 60.4334 66.3084 60.4334 65.9179 60.0429L64 58.125C64 58.125 64 58.125 64 58.125V58.125Z" fill="white"/>
<path opacity="0.2" d="M54 38L46 62" stroke="white" stroke-width="3" stroke-linecap="round" stroke-linejoin="round"/>
</svg>
