<svg width="762" height="265" viewBox="0 0 762 265" fill="none" xmlns="http://www.w3.org/2000/svg">
<path d="M110.759 263.5C144.651 233.854 189.27 212.26 245.513 213.632C374.016 216.766 466.214 111.335 496.25 58.2272C504.495 42.2771 519.053 21.7519 539.869 1.50001" stroke="#272727"/>
<path d="M1.30566 192.802C37.0323 151.958 89.1225 117.893 159.322 119.605C261.844 122.106 341.257 55.5031 384.431 1.5" stroke="#272727"/>
<path d="M1.39404 37.3325C22.7973 29.369 46.6786 24.934 73.1313 25.5792C113.394 26.5612 150.093 16.8852 182.432 1.5" stroke="#272727"/>
<path d="M761.352 21.9535C652.056 38.3516 585.986 112.64 564.158 154.865C547.591 184.158 512.112 229.368 462.062 263.5" stroke="#272727"/>
<path d="M761.352 143.694C702.788 173.818 665.67 219.253 650.348 248.892C647.79 253.415 644.781 258.317 641.337 263.5" stroke="#272727"/>
<path d="M24.584 263.5C59.783 213.123 117.648 164.584 201.112 166.619C329.614 169.753 421.812 64.3221 451.848 11.2146C453.44 8.1353 455.267 4.88548 457.329 1.50001" stroke="#272727"/>
<path d="M1.30566 106.091C31.9692 85.2416 69.6852 71.4891 114.921 72.5924C188.436 74.3854 250.069 40.6465 294.978 1.5" stroke="#272727"/>
<path d="M761.352 78.5176C676.858 104.786 624.837 165.338 605.947 201.879C596.359 218.832 580.436 241.117 559.02 263.5" stroke="#272727"/>
<path d="M761.352 212.537C739.361 228.908 721.883 246.891 708.952 263.5" stroke="#272727"/>
<path d="M69.0576 263.5C104.789 222.577 156.928 188.41 227.23 190.125C355.732 193.259 447.93 87.8276 477.967 34.7202C483 24.9839 490.385 13.5429 500.11 1.50001" stroke="#272727"/>
<path d="M1.30566 150.45C35.7658 118.527 81.9975 94.6589 141.039 96.0989C229.019 98.2448 299.981 49.5001 345.627 1.5" stroke="#272727"/>
<path d="M1.30566 8.09592C17.8239 3.80978 35.6596 1.6046 54.8484 2.07262C62.7901 2.26632 70.5931 2.04536 78.2514 1.44771" stroke="#272727"/>
<path d="M402.708 263.5C474.5 229.961 525.082 168.122 545.875 131.358C566.542 91.3785 626.871 22.6546 726 1.53999" stroke="#272727"/>
<path d="M761.352 111.61C692.176 141.032 648.925 192.772 632.066 225.385C625.872 236.336 617.036 249.511 605.784 263.5" stroke="#272727"/>
<path d="M761.352 254C758.033 257.162 754.867 260.335 751.854 263.5" stroke="#272727"/>
<path d="M1.5 247.085C1.57056 246.977 1.64122 246.87 1.71198 246.762C36.373 194.061 95.63 140.985 182.829 143.112C300.963 145.993 388.415 57.1219 425.095 1.5" stroke="#272727"/>
<path d="M1.30566 71.502C28.3193 57.0372 60.0141 48.1926 96.6379 49.0859C154.826 50.5051 205.57 29.6638 246.469 1.5" stroke="#272727"/>
<path d="M761.352 50.0035C666.045 72.6552 607.88 139.265 587.664 178.372C574.692 201.308 550.124 234.005 516.045 263.5" stroke="#272727"/>
<path d="M761.352 176.504C718.406 203.506 689.457 237.955 674.689 263.5" stroke="#272727"/>
<path d="M259.195 263.587C264.949 263.226 270.836 263.11 276.855 263.257C405.358 266.391 497.556 160.96 527.592 107.852C543.11 77.833 580.989 31.6081 640.865 1.5" stroke="#272727"/>
<path d="M160.791 263.5C188.332 248.248 220.836 238.83 258.572 239.75C387.075 242.884 479.273 137.453 509.309 84.3456C521.176 61.3892 546.12 28.9556 583.978 1.5" stroke="#272727"/>
<path d="M3.00002 263.5C2.17159 263.5 1.5 262.828 1.5 262L1.49999 3.00003C1.49999 2.17163 2.17156 1.50003 2.99999 1.50003L305.921 1.50002L760 1.5C760.828 1.5 761.5 2.17157 761.5 3L761.5 262C761.5 262.828 760.828 263.5 760 263.5L3.00002 263.5Z" stroke="#4A4A4A"/>
</svg>
