<svg width="1469" height="518" viewBox="0 0 1469 518" fill="none" xmlns="http://www.w3.org/2000/svg">
<path opacity="0.2" d="M-142 478C-99.5 429 71 249.5 513.5 237.5C956 225.5 1191.5 141 1283.5 -31" stroke="white"/>
<path opacity="0.2" d="M-65 517C-13.1667 441.167 161.9 283.9 447.5 261.5C804.5 233.5 1167.5 232 1329 -27.5" stroke="white"/>
<path opacity="0.2" d="M-173 337C-84 295.334 167.5 209.6 461.5 200C829 188 1082.5 136.5 1188 -2" stroke="white"/>
<path opacity="0.2" d="M-146 352.5C-57 310.833 194.5 225.1 488.5 215.5C856 203.5 1112 159 1237.5 -16.5" stroke="white"/>
<path opacity="0.2" d="M-27 254C14.6667 238.5 153.6 202.9 376 184.5C654 161.5 1015.5 156.5 1136 -9" stroke="white"/>
<path opacity="0.2" d="M-70.5 223C63.3333 187 406 136.7 616 187.5C878.5 251 1043.5 209.5 1128.5 178.5C1196.5 153.7 1291.5 109.5 1396.5 -20.5" stroke="white"/>
<path opacity="0.2" d="M-104.5 201C59.1667 158.833 453.3 95.6 664.5 182C928.5 290 1385.5 147 1468 -21.5" stroke="white"/>
</svg>
