<svg width="1920" height="1449" viewBox="0 0 1920 1449" fill="none" xmlns="http://www.w3.org/2000/svg">
<g opacity="0.3">
<path opacity="0.3" d="M-82.9999 1C-189.667 37.6667 -267 169.7 277 404.5C957 698 2057 814.5 2057 1244.5" stroke="white"/>
<path opacity="0.3" d="M-40.9999 49C-147.667 85.6667 -225 217.7 319 452.5C999 746 2099 862.5 2099 1292.5" stroke="white"/>
<path opacity="0.3" d="M-182.588 44C-289.254 80.6667 -366.588 212.7 177.412 447.5C857.412 741 1957.41 857.5 1957.41 1287.5" stroke="white"/>
<path opacity="0.3" d="M-140.588 92C-247.254 128.667 -324.588 260.7 219.412 495.5C899.412 789 1999.41 905.5 1999.41 1335.5" stroke="white"/>
<path opacity="0.3" d="M-45.5878 157C-152.254 193.667 -229.588 325.7 314.412 560.5C994.412 854 2094.41 970.5 2094.41 1400.5" stroke="white"/>
<path opacity="0.3" d="M-3.58778 205C-110.254 241.667 -187.588 373.7 356.412 608.5C1036.41 902 2136.41 1018.5 2136.41 1448.5" stroke="white"/>
</g>
</svg>
