<svg width="100" height="100" viewBox="0 0 100 100" fill="none" xmlns="http://www.w3.org/2000/svg">
<circle opacity="0.2" cx="50" cy="50" r="49.5" stroke="white"/>
<path fill-rule="evenodd" clip-rule="evenodd" d="M38 43C38 42.4477 38.4477 42 39 42H61C61.5523 42 62 42.4477 62 43V43.6667C62 44.219 61.5523 44.6667 61 44.6667H39C38.4477 44.6667 38 44.219 38 43.6667V43ZM38 50.3333C38 50.8856 38.4477 51.3333 39 51.3333H61C61.5523 51.3333 62 50.8856 62 50.3333V49.6667C62 49.1144 61.5523 48.6667 61 48.6667H39C38.4477 48.6667 38 49.1144 38 49.6667V50.3333ZM38 57C38 57.5523 38.4477 58 39 58H61C61.5523 58 62 57.5523 62 57V56.3333C62 55.781 61.5523 55.3333 61 55.3333H39C38.4477 55.3333 38 55.781 38 56.3333V57Z" fill="white"/>
</svg>
